<?xml version="1.0" standalone="no"?><!DOCTYPE svg PUBLIC "-//W3C//DTD SVG 1.1//EN" "http://www.w3.org/Graphics/SVG/1.1/DTD/svg11.dtd"><svg t="1600930959711" class="icon" viewBox="0 0 1024 1024" version="1.1" xmlns="http://www.w3.org/2000/svg" p-id="6701" xmlns:xlink="http://www.w3.org/1999/xlink" width="128" height="128"><defs><style type="text/css"></style></defs><path d="M510.414861 41.213622c-208.354939 0-377.263158 169.284425-377.263158 378.104339C133.151703 628.146328 510.414861 1001.80805 510.414861 1001.80805S887.678019 628.146328 887.678019 419.317961c0-208.819913-168.908219-378.104338-377.263158-378.104339z m0 621.374613C375.593478 662.588235 266.303406 553.298163 266.303406 418.47678s109.290072-244.111455 244.111455-244.111455S754.526316 283.655397 754.526316 418.47678s-109.290072 244.111455-244.111455 244.111455z" fill="#3ee8c4" p-id="6702"></path><path d="M510.681164 502.831554c8.276541-82.291979 86.920586-77.633783 86.920586-77.633783V274.068475A7.760842 7.760842 0 0 0 589.840908 266.303406H381.853721a7.760842 7.760842 0 0 0-7.760842 7.765069v295.013449c0 4.286217 3.474625 7.765069 7.760842 7.765069h166.60871c-6.099616-1.454101-37.781267-17.187137-37.781267-74.015439z m-105.544916-77.988854c0 4.205903-3.41122 7.617123-7.617123 7.617122h-1.842989a7.617123 7.617123 0 0 1-7.617123-7.617122V379.503488c0-4.205903 3.41122-7.617123 7.617123-7.617123h1.842989c4.205903 0 7.617123 3.41122 7.617123 7.617123v45.339212z m144.3449 152.004293h-1.018717c0.676326 0.160627 1.052533 0.152173 1.018717 0z m51.996796-141.297206c-39.002881 0-70.621127 31.639381-70.621127 70.663398 0 39.028244 31.618246 70.667624 70.621127 70.667624 39.007108 0 70.621127-31.635154 70.621127-70.667624 0-39.028244-31.614019-70.663397-70.621127-70.663398z m35.748062 108.368578s-1.035624 4.539839-7.050699 4.539839-58.4853-0.41425-58.485301-0.414249-4.142497-1.031397-4.142497-4.539839v-41.699732s-1.039851-4.539839 5.389473-4.539839 7.0507-0.41425 7.0507-0.41425v-18.577833s0-18.58206 21.980599-18.58206c23.02045 0 22.813325 18.16781 22.813325 18.167811l0.41425 18.992082h7.469176c4.358076 0 4.560974 5.368338 4.560974 5.368339v41.699731z m-35.257725-75.55408c-13.826642 0.27053-13.2729 10.3182-13.2729 10.3182v18.16781h27.378526v-18.992082s0.135265-9.63342-14.105626-9.493928z m0.418476 38.394188c-9.40516 0-9.126175 7.156376-9.126175 9.493927 0 7.705891 6.2222 8.673882 6.2222 8.673883v12.799471h6.63645v-13.627971s5.114716-0.963765 5.807951-7.845383c0-1.788037-0.143719-9.493928-9.540426-9.493927z" fill="#3ee8c4" p-id="6703"></path></svg>