<?xml version="1.0" standalone="no"?><!DOCTYPE svg PUBLIC "-//W3C//DTD SVG 1.1//EN" "http://www.w3.org/Graphics/SVG/1.1/DTD/svg11.dtd"><svg t="1600930886717" class="icon" viewBox="0 0 1024 1024" version="1.1" xmlns="http://www.w3.org/2000/svg" p-id="5976" xmlns:xlink="http://www.w3.org/1999/xlink" width="128" height="128"><defs><style type="text/css"></style></defs><path d="M162.9 827.9L82 901.8V530.2l80.9 20.6z" fill="#3ee8c4" p-id="5977"></path><path d="M82 919.2c-2.4 0-4.7-0.5-7-1.5-6.3-2.8-10.4-9-10.4-15.9V530.2c0-5.4 2.5-10.4 6.7-13.7 4.2-3.3 9.7-4.4 14.9-3.1l80.9 20.7c7.7 2 13.1 8.9 13.1 16.8V828c0 4.9-2 9.5-5.6 12.8l-80.9 73.9c-3.2 2.9-7.4 4.5-11.7 4.5z m17.4-366.7v309.9l46.2-42.2v-256l-46.2-11.7z" fill="#3ee8c4" p-id="5978"></path><path d="M741.5 694.5L207 395.2c-20.7-11.6-27.6-38.8-15.4-60.6L297.2 146c12.2-21.9 39-30.2 59.7-18.6l579.7 329.1-195.1 238z" fill="#3ee8c4" p-id="5979"></path><path d="M741.5 711.8c-2.9 0-5.8-0.7-8.5-2.2L198.5 410.3c-14.2-8-24.3-21.2-28.4-37.3-4-15.8-1.8-32.4 6.4-46.9l105.6-188.6c8.1-14.5 21.1-25.1 36.7-29.9 15.9-4.9 32.5-3.3 46.7 4.7l579.8 329.2c4.4 2.5 7.6 6.9 8.5 11.9 0.9 5-0.4 10.2-3.6 14.2L754.9 705.5c-3.4 4.1-8.3 6.3-13.4 6.3zM336.8 139.5c-2.6 0-5.2 0.4-7.7 1.2-7 2.2-12.9 7.1-16.7 13.7L206.8 343c-3.7 6.7-4.8 14.3-3 21.4 1.7 6.8 5.9 12.3 11.7 15.6l521.8 292.2 172.8-210.8-561.7-318.9c-3.6-1.9-7.5-3-11.6-3z" fill="#3ee8c4" p-id="5980"></path><path d="M686.1 726.8l-460.7-258c-9.1-5.1-12.3-16.6-7.2-25.6l18.1-32.3 505.2 282.9-11.6 20.7c-8.7 15.5-28.3 21-43.8 12.3z" fill="#3ee8c4" p-id="5981"></path><path d="M692.6 739.8c-12.4 0-24.6-3.2-35.7-9.4L229 490.8c-11.7-6.5-20.1-17.2-23.7-30.1-3.6-12.9-2-26.4 4.5-38l11.3-20.2c4.7-8.4 15.3-11.3 23.6-6.7l505.2 282.9c4 2.2 7 6 8.2 10.4 1.3 4.4 0.7 9.2-1.6 13.2-9.6 17.1-25.2 29.4-44 34.7-6.5 1.8-13.2 2.8-19.9 2.8zM242.9 434.5l-2.9 5.1c-2 3.6-2.5 7.7-1.4 11.7 1.1 3.9 3.7 7.2 7.3 9.2l427.9 239.6c13.1 7.3 28.7 6.2 40.4-1.7L242.9 434.5z" fill="#3ee8c4" p-id="5982"></path><path d="M412.6 576.4l-53.7-31.1L289 666.4H168.7v62h156.1z" fill="#3ee8c4" p-id="5983"></path><path d="M324.8 745.8H168.7c-9.6 0-17.4-7.8-17.4-17.4v-62c0-9.6 7.8-17.4 17.4-17.4H279l64.9-112.4c4.8-8.3 15.4-11.1 23.7-6.4l53.7 31c8.3 4.8 11.1 15.4 6.4 23.7l-87.5 151.5c-3 5.6-8.7 9.4-15.4 9.4z m-138.7-34.7h128.7l74.1-128.4-23.7-13.7L304 675c-3.1 5.4-8.8 8.7-15 8.7H186.1v27.4z" fill="#3ee8c4" p-id="5984"></path><path d="M358.3 241m-21.8 0a21.8 21.8 0 1 0 43.6 0 21.8 21.8 0 1 0-43.6 0Z" fill="#3ee8c4" p-id="5985"></path><path d="M786.8 733.1c-3.9 0-7.9-1.3-11.1-4-7.4-6.1-8.3-17.1-2.2-24.4L928.7 519c6.1-7.4 17.1-8.3 24.4-2.2 7.4 6.1 8.3 17.1 2.2 24.4L800.1 726.8c-3.4 4.2-8.4 6.3-13.3 6.3z" fill="#3ee8c4" p-id="5986"></path></svg>