<?xml version="1.0" standalone="no"?><!DOCTYPE svg PUBLIC "-//W3C//DTD SVG 1.1//EN" "http://www.w3.org/Graphics/SVG/1.1/DTD/svg11.dtd"><svg t="1600931051047" class="icon" viewBox="0 0 1024 1024" version="1.1" xmlns="http://www.w3.org/2000/svg" p-id="8926" xmlns:xlink="http://www.w3.org/1999/xlink" width="128" height="128"><defs><style type="text/css"></style></defs><path d="M102.4 256a55.04 55.04 0 0 1 51.2-51.2h102.4V102.4H102.4a102.7072 102.7072 0 0 0-102.4 102.4v153.6h102.4V256z m0 512v-102.4H0v153.6a102.7072 102.7072 0 0 0 102.4 102.4h153.6v-102.4H153.6a55.04 55.04 0 0 1-51.2-51.2zM921.6 102.4h-153.6v102.4h102.4a55.04 55.04 0 0 1 51.2 51.2v102.4h102.4V204.8a102.7072 102.7072 0 0 0-102.4-102.4z m0 665.6a55.04 55.04 0 0 1-51.2 51.2h-102.4v102.4h153.6a102.7072 102.7072 0 0 0 102.4-102.4v-153.6h-102.4v102.4z m-102.4-51.2v-153.6a90.9824 90.9824 0 0 0-20.48-51.2h46.08a24.1664 24.1664 0 0 0 25.6-25.6 48.384 48.384 0 0 0-51.2-51.2h-30.72l-46.08-112.64A100.096 100.096 0 0 0 645.12 256H378.88a100.096 100.096 0 0 0-97.28 66.56l-46.08 112.64H204.8a48.384 48.384 0 0 0-51.2 51.2 24.1664 24.1664 0 0 0 25.6 25.6h46.08a90.9824 90.9824 0 0 0-20.48 51.2v153.6a51.2 51.2 0 1 0 102.4 0v-25.6h409.6v25.6a51.2 51.2 0 1 0 102.4 0zM322.56 409.6l15.36-46.08A81.3056 81.3056 0 0 1 414.72 307.2h194.56a76.8 76.8 0 0 1 71.68 51.2l15.36 51.2a28.8256 28.8256 0 0 1-30.72 35.84 1235.2 1235.2 0 0 0-317.44 0 27.904 27.904 0 0 1-25.6-35.84zM307.2 614.4a51.2 51.2 0 1 1 51.2-51.2 48.384 48.384 0 0 1-51.2 51.2z m281.6-51.2h-153.6a25.6 25.6 0 0 1 0-51.2h153.6a25.6 25.6 0 0 1 0 51.2z m128 51.2a51.2 51.2 0 1 1 51.2-51.2 48.384 48.384 0 0 1-51.2 51.2z m0 0" p-id="8927" fill="#3ee8c4"></path></svg>