<?xml version="1.0" standalone="no"?><!DOCTYPE svg PUBLIC "-//W3C//DTD SVG 1.1//EN" "http://www.w3.org/Graphics/SVG/1.1/DTD/svg11.dtd"><svg t="1601886882873" class="icon" viewBox="0 0 1024 1024" version="1.1" xmlns="http://www.w3.org/2000/svg" p-id="1758" xmlns:xlink="http://www.w3.org/1999/xlink" width="200" height="200"><defs><style type="text/css"></style></defs><path d="M877.201209 0.263971H146.271276A138.168786 138.168786 0 0 0 0 128.198031v767.604364a138.168786 138.168786 0 0 0 146.271276 127.934061h730.929933A138.168786 138.168786 0 0 0 1023.472485 895.802395V128.198031a138.168786 138.168786 0 0 0-146.271276-127.93406zM118.125783 195.15019a82.304246 82.304246 0 0 1 85.289373-76.760437h123.243146a32.836409 32.836409 0 0 1 34.542196 30.704175 32.836409 32.836409 0 0 1-34.542196 30.704174H222.605266a33.262856 33.262856 0 0 0-35.395091 31.130622v108.317505a32.836409 32.836409 0 0 1-34.542196 30.704174 32.409962 32.409962 0 0 1-34.542196-30.277728z m208.532519 710.460483H204.694497a82.304246 82.304246 0 0 1-85.289374-76.760436v-124.522486a32.409962 32.409962 0 0 1 34.542197-30.277728 32.836409 32.836409 0 0 1 34.542196 30.704175v108.317505a33.262856 33.262856 0 0 0 35.39509 31.130621h102.773696a30.704175 30.704175 0 1 1 0 61.408349z m4.690915-250.750759v-11.514065c0-34.11575 63.114137-65.672818 118.55223-85.289374a37.953771 37.953771 0 0 0 12.793406-45.629815 148.40351 148.40351 0 0 1-48.188496-104.479483A90.833183 90.833183 0 0 1 511.736243 314.98176a92.112524 92.112524 0 0 1 98.509226 92.965417 149.256404 149.256404 0 0 1-50.747177 106.185271c-12.366959 29.424834 5.117362 45.629815 7.676044 45.629815 55.86454 15.778534 121.537358 49.467837 123.669592 85.289373v11.514066c0 45.203368-93.391864 54.158752-179.107685 54.158752s-180.387026-13.219853-180.387026-55.86454z m573.571039 173.990323a69.51084 69.51084 0 0 1-25.160366 53.732305 91.25963 91.25963 0 0 1-60.981902 23.028131h-121.963804a30.704175 30.704175 0 1 1 0-61.408349h104.053036a33.262856 33.262856 0 0 0 35.39509-31.130621v-108.317505a34.542196 34.542196 0 0 1 68.657946 0z m0-509.604008a34.968643 34.968643 0 0 1-69.084393 0V210.928724a33.262856 33.262856 0 0 0-35.39509-31.130622h-103.626589a32.836409 32.836409 0 0 1-34.542197-30.704174 32.836409 32.836409 0 0 1 34.542197-30.704175h121.537357a92.965417 92.965417 0 0 1 61.408349 23.028131 69.937286 69.937286 0 0 1 25.586813 53.732306z" p-id="1759" fill="#3ee8c4"></path></svg>